<?xml version="1.0" encoding="UTF-8"?>
<svg id="Layer_1" xmlns="http://www.w3.org/2000/svg" version="1.1" viewBox="0 0 64 64">
  <defs>
    <style>.st0 { fill: #fff; }</style>
  </defs>
  <path class="st0" d="M33.16,14.94c-.11,3.11.21,6.08.31,9.42.05,1.23.23,3.72-.13,4.34-.6.96-1.36-1.24-1.48-2.1-.85-4.07-1.35-9.09-2.49-13.21-1.51-5.66-6.66-6.48-11.25-2.82-3.1,2.46-4.66,6.49-3.51,10.15.67,2.21,2.13,3.63,3.9,5.28,7.57,6.45,14.08,14.41,13.19,24.31-.58,8.18-5.11,12.81-13.81,7.7-9.28-5.05-14.65-14.68-15.41-24.3C1.56,21.33,9.23,7.82,22.78,3.95c32.26-9.01,50.2,28.18,30.77,49.24-3.06,3.45-7.45,6.32-12.19,7.82-2.77.84-3.68.6-3.56-2.13.41-8.83-1.72-19.36,4.33-27.09,2.18-3.04,5.7-5.31,8.08-8.16,1.76-1.99,1.53-5.67-1.47-6.45-4.38-.77-6.93,3.75-8.53,6.76-.62.83-2.56,7.7-2.84,4.01-.14-3.03,1.14-6.23,3.03-8.73,1.08-1.48,2.46-2.91,3.05-4.49.64-1.57.17-3.4-1.16-4.57-4.46-3.5-8.96.18-9.13,4.75v.04s0,0,0,0ZM57.14,29.48c-1.17-2.15-4.24-2.66-6.54-1.78-3.16,1.12-5.32,3.72-6.66,6.49-.73,1.51-1.22,3.25-.73,4.87.81,2.76,3.95,3.74,6.72,2.62,4.57-1.69,9.48-7.66,7.23-12.16l-.02-.04ZM23.2,40.68c2.56-3.1-.14-6.79-2.7-9.24-2.99-3-8.95-6.29-11.77-1.5-3.05,6.3,9.45,16.3,14.44,10.78l.03-.04Z"/>
</svg>
